<svg width="24" height="24" viewBox="0 0 24 24" fill="none" xmlns="http://www.w3.org/2000/svg">
<path d="M11.1001 2.44358C11.4645 1.69178 12.5355 1.69178 12.8999 2.44358L15.4347 7.67365C15.5805 7.97434 15.8668 8.18237 16.1978 8.2281L21.9567 9.02365C22.7842 9.13796 23.1151 10.1564 22.5128 10.7352L18.3216 14.7634C18.0807 14.9949 17.9713 15.3314 18.0301 15.6603L19.053 21.3821C19.2 22.2045 18.3335 22.8339 17.5969 22.4398L12.4716 19.6982C12.177 19.5406 11.823 19.5406 11.5283 19.6982L6.40231 22.4398C5.66562 22.8339 4.7992 22.2044 4.94631 21.382L5.96982 15.6604C6.02866 15.3315 5.91931 14.9949 5.67838 14.7633L1.4872 10.7352C0.884912 10.1564 1.2158 9.13796 2.0433 9.02365L7.80222 8.2281C8.13323 8.18237 8.41952 7.97434 8.56525 7.67365L11.1001 2.44358Z" fill="black"/>
</svg>
